<?xml version="1.0" encoding="UTF-8" standalone="no"?>
<!-- Created with Inkscape (http://www.inkscape.org/) -->

<svg
   version="1.1"
   id="svg2"
   xml:space="preserve"
   width="1192.4133"
   height="204.28"
   viewBox="0 0 1192.4133 204.28"
   sodipodi:docname="Unigloves_logo_horizontal_CMYK.eps"
   xmlns:inkscape="http://www.inkscape.org/namespaces/inkscape"
   xmlns:sodipodi="http://sodipodi.sourceforge.net/DTD/sodipodi-0.dtd"
   xmlns="http://www.w3.org/2000/svg"
   xmlns:svg="http://www.w3.org/2000/svg"><defs
     id="defs6" /><sodipodi:namedview
     id="namedview4"
     pagecolor="#ffffff"
     bordercolor="#666666"
     borderopacity="1.0"
     inkscape:pageshadow="2"
     inkscape:pageopacity="0.0"
     inkscape:pagecheckerboard="0" /><g
     id="g8"
     inkscape:groupmode="layer"
     inkscape:label="ink_ext_XXXXXX"
     transform="matrix(1.3333333,0,0,-1.3333333,0,204.28)"><g
       id="g10"
       transform="scale(0.1)"><path
         d="M 100.648,1508.23 C 9.875,1508.15 0.367188,1498.39 0.3125,1404.72 0.160156,1161.66 -0.386719,918.594 0.460938,675.539 0.636719,624.953 1.69922,573.652 9.89844,523.941 60.4531,217.398 301.898,16.0313 633.988,0.808594 1009.66,-16.4102 1299.45,241.68 1311.65,615.969 c 8.8,270.258 3.01,540.981 4.13,811.501 0.25,59.07 -28.79,83.03 -86.7,81.55 -78.15,-2 -156.39,-0.68 -234.596,-0.59 -113.121,0.15 -116.398,-3.44 -116.296,-119.04 0.21,-236.72 0.289,-473.452 -0.059,-710.179 -0.109,-75.852 -11.02,-149.129 -76.281,-199.199 -74.961,-57.524 -157.071,-66.93 -244.039,-27.91 -89.153,40.007 -119.172,116.433 -120.52,205.82 -0.305,20.535 -0.566,40.762 -0.785,60.469 l 0.098,-0.09 c -0.204,29.121 -0.664,139.074 -1.114,239.582 0.024,14.414 0.055,24.828 0.055,29.84 -0.063,0 -0.129,0.004 -0.191,0.004 -0.313,67.723 -0.614,126.593 -0.817,146.463 -0.722,71.24 -56.355,112.55 -105.027,75.49 -21.586,-16.44 -34.445,-57.14 -34.606,-86.92 -0.121,-21.89 -0.191,-71.22 -0.234,-122.94 -0.012,0 -0.02,0 -0.027,0 0,-195.816 -2.805,-176.254 0.656,-368.004 3.644,-201.836 151.285,-344.015 352.609,-346.464 214.75,-2.614 367.724,137.179 371.694,346.484 3.89,204.957 1.82,410.024 1.9,615.044 0,20.29 1.58,42.35 1.61,45.3 0.35,29.78 14.15,70.4 36.99,86.71 51.49,36.79 109.84,-4.85 110.16,-76.09 0.18,-38.06 0.16,-76.12 0.18,-114.19 0.09,0.05 0.17,0.09 0.25,0.13 0.87,-193.974 2.44,-387.967 -2.48,-581.806 C 1164.78,471.379 1111.21,350.84 1002.04,264.5 824.664,124.23 625.938,105.641 424.004,194.832 224.895,282.77 143.215,451.871 143.77,664.875 c 0.503,192.344 0.117,384.695 0.121,577.035 0,14.91 0,29.82 0,44.98 0,39.22 31.789,71 71.004,71 h 300.882 c 39.219,0 71.008,-31.78 71.004,-71 v 0 c -0.027,-207.14 -0.652,-414.288 0.235,-621.421 0.308,-71.239 55.703,-112.871 104.589,-76.094 21.688,16.309 34.778,56.934 35.114,86.711 2.793,247.269 1.957,494.574 1.609,741.874 -0.105,75.7 -15.652,90.31 -95.035,90.45 -177.551,0.32 -355.094,-0.02 -532.645,-0.18"
         style="fill:#54c6ca;fill-opacity:1;fill-rule:nonzero;stroke:none"
         id="path12" /><path
         d="m 2436.59,1009.83 c 0,-120.053 -21.04,-202.982 -81.68,-268.568 -59.41,-64.367 -152.23,-101.496 -276,-101.496 -125,0 -216.6,37.129 -277.23,101.496 -59.41,65.586 -80.45,148.515 -80.45,268.568 v 497.54 h 201.73 v -497.54 c 0,-60.646 4.96,-107.682 33.42,-142.334 27.23,-32.18 66.83,-53.219 122.53,-53.219 55.69,0 95.3,21.039 122.53,53.219 28.47,34.652 33.41,81.688 33.41,142.334 v 497.54 h 201.74 v -497.54"
         style="fill:#262f3b;fill-opacity:1;fill-rule:nonzero;stroke:none"
         id="path14" /><path
         d="m 3389.59,653.379 h -205.45 l -375.01,579.231 c 0,0 3.71,-102.73 3.71,-193.08 V 653.379 h -195.55 v 853.991 h 214.11 l 366.35,-574.272 c 0,0 -3.71,96.532 -3.71,186.882 v 387.39 h 195.55 V 653.379"
         style="fill:#262f3b;fill-opacity:1;fill-rule:nonzero;stroke:none"
         id="path16" /><path
         d="M 3777,653.379 H 3576.5 V 1507.37 H 3777 V 653.379"
         style="fill:#262f3b;fill-opacity:1;fill-rule:nonzero;stroke:none"
         id="path18" /><path
         d="m 4367.37,638.535 c -243.82,0 -435.66,175.742 -435.66,441.835 0,266.1 191.84,439.37 434.42,439.37 219.06,0 313.12,-115.1 345.3,-148.51 l -81.68,-75.5 c -50.74,59.41 -129.95,121.29 -263.62,121.29 -175.75,0 -310.66,-126.24 -310.66,-336.65 0,-210.393 139.86,-336.64 318.08,-336.64 176.99,0 240.12,77.969 240.12,77.969 v 189.371 h -230.21 v 97.77 H 4730 V 777.148 C 4713.91,761.055 4609.95,638.535 4367.37,638.535"
         style="fill:#262f3b;fill-opacity:1;fill-rule:nonzero;stroke:none"
         id="path20" /><path
         d="m 4923.09,653.379 v 853.991 h 120.06 V 754.863 H 5343.9 V 653.379 h -420.81"
         style="fill:#262f3b;fill-opacity:1;fill-rule:nonzero;stroke:none"
         id="path22" /><path
         d="m 5842.68,1415.78 c -174.51,0 -318.07,-125 -318.07,-334.17 0,-207.922 144.8,-334.169 318.07,-334.169 174.51,0 318.09,126.247 318.09,334.169 0,209.17 -143.58,334.17 -318.09,334.17 z m 0,-777.245 c -240.1,0 -440.6,167.082 -440.6,440.605 0,273.52 200.5,440.6 440.6,440.6 240.12,0 440.62,-167.08 440.62,-440.6 0,-273.523 -200.5,-440.605 -440.62,-440.605"
         style="fill:#262f3b;fill-opacity:1;fill-rule:nonzero;stroke:none"
         id="path24" /><path
         d="m 6751.15,652.141 h -106.44 l -314.35,855.229 h 128.71 l 240.1,-680.718 240.11,680.718 h 126.24 L 6751.15,652.141"
         style="fill:#262f3b;fill-opacity:1;fill-rule:nonzero;stroke:none"
         id="path26" /><path
         d="m 7191.76,653.379 v 853.991 h 500.01 v -100.26 h -379.96 v -254.95 h 358.93 V 1050.67 H 7311.81 V 754.863 h 389.87 V 653.379 h -509.92"
         style="fill:#262f3b;fill-opacity:1;fill-rule:nonzero;stroke:none"
         id="path28" /><path
         d="m 8103.93,638.535 c -149.76,0 -235.17,96.524 -276.01,143.567 l 70.56,80.445 c 43.31,-58.172 123.76,-122.527 216.58,-122.527 92.83,0 167.09,53.214 167.09,143.57 0,89.109 -95.3,123.76 -138.62,141.09 -44.55,17.33 -103.96,40.84 -136.14,56.93 -87.88,40.85 -141.1,108.92 -141.1,209.17 0,152.23 138.63,227.73 274.76,227.73 139.86,0 221.54,-85.4 245.06,-110.15 l -63.13,-81.69 c -42.07,44.56 -103.95,91.59 -188.11,91.59 -84.16,0 -148.53,-39.61 -148.53,-118.81 0,-79.22 58.18,-108.92 110.16,-129.97 l 157.19,-65.59 c 87.87,-40.84 148.51,-111.39 148.51,-212.878 0,-165.844 -148.51,-252.477 -298.27,-252.477"
         style="fill:#262f3b;fill-opacity:1;fill-rule:nonzero;stroke:none"
         id="path30" /><path
         d="m 8738.85,1320.48 c 28.47,0 44.56,14.85 44.56,35.9 0,23.51 -16.09,35.89 -44.56,35.89 h -53.21 v -71.79 z m -95.3,87.88 c 0,11.13 8.66,21.03 21.04,21.03 h 77.97 c 48.27,0 84.16,-23.51 84.16,-69.3 0,-33.42 -18.55,-56.93 -48.27,-68.07 l 42.08,-49.51 c 4.95,-6.19 6.19,-11.14 6.19,-16.09 0,-11.14 -8.66,-21.04 -19.79,-21.04 -8.67,0 -14.85,4.95 -19.81,11.14 l -56.93,69.31 h -44.55 v -58.17 c 0,-12.38 -9.91,-22.28 -21.05,-22.28 -12.38,0 -21.04,9.9 -21.04,22.28 z m 274.77,-92.83 v 1.24 c 0,105.2 -81.69,191.84 -190.61,191.84 -107.68,0 -190.6,-87.88 -190.6,-193.08 v -1.24 c 0,-105.2 81.68,-191.83 190.6,-191.83 107.69,0 190.61,87.87 190.61,193.07 z m -405.96,-1.24 v 1.24 c 0,117.58 95.3,216.59 215.35,216.59 121.29,0 215.35,-97.77 215.35,-215.35 v -1.24 c 0,-117.57 -95.29,-216.59 -215.35,-216.59 -121.28,0 -215.35,97.77 -215.35,215.35"
         style="fill:#262f3b;fill-opacity:1;fill-rule:nonzero;stroke:none"
         id="path32" /><path
         d="m 2064.14,7.32031 h -110.1 L 1855.85,170.012 1824.63,135.559 V 7.32031 h -91.37 V 397.121 h 91.37 V 254.762 l 120.89,142.359 h 108.97 L 1916.58,241.77 2064.14,7.32031"
         style="fill:#787c8a;fill-opacity:1;fill-rule:nonzero;stroke:none"
         id="path34" /><path
         d="m 2462.59,7.32031 h -258.8 V 397.121 h 253.7 V 324.25 h -162.32 v -79.66 h 153.24 V 171.711 H 2295.17 V 81.3203 h 167.42 V 7.32031"
         style="fill:#787c8a;fill-opacity:1;fill-rule:nonzero;stroke:none"
         id="path36" /><path
         d="m 2891.69,7.32031 h -258.8 V 397.121 h 253.7 V 324.25 h -162.32 v -79.66 h 153.24 V 171.711 H 2724.27 V 81.3203 h 167.42 V 7.32031"
         style="fill:#787c8a;fill-opacity:1;fill-rule:nonzero;stroke:none"
         id="path38" /><path
         d="m 3233.39,315.77 c -11.35,7.91 -24.41,10.73 -44.27,10.73 h -35.75 V 221.988 h 35.75 c 19.86,0 32.92,2.832 44.27,10.742 10.79,7.911 18.73,22.032 18.73,41.801 0,19.778 -7.94,33.34 -18.73,41.239 z m 70.95,-135.02 c -26.11,-21.461 -61.87,-29.379 -102.16,-29.379 h -48.24 V 7.32031 h -91.95 V 397.121 h 140.19 c 40.29,0 76.05,-7.902 102.16,-29.383 26.1,-21.457 40.86,-51.398 40.86,-93.207 0,-41.801 -14.76,-71.75 -40.86,-93.781"
         style="fill:#787c8a;fill-opacity:1;fill-rule:nonzero;stroke:none"
         id="path40" /><path
         d="m 3595.51,7.32031 h -91.94 V 397.121 h 91.94 V 7.32031"
         style="fill:#787c8a;fill-opacity:1;fill-rule:nonzero;stroke:none"
         id="path42" /><path
         d="m 4134.7,7.32031 h -94.21 L 3868.52,271.711 c 0,0 1.7,-46.891 1.7,-88.129 V 7.32031 h -89.67 V 397.121 h 98.19 l 167.99,-262.133 c 0,0 -1.71,44.063 -1.71,85.301 v 176.832 h 89.68 V 7.32031"
         style="fill:#787c8a;fill-opacity:1;fill-rule:nonzero;stroke:none"
         id="path44" /><path
         d="m 4677.89,67.7617 c -19.88,-17.5234 -66.4,-66.67186 -174.24,-66.67186 -108.4,0 -203.75,71.19146 -203.75,201.12916 0,129.941 95.35,200.551 204.88,200.551 103.86,0 148.7,-54.231 161.19,-67.79 l -60.73,-52.539 c -16.46,18.079 -47.11,44.629 -100.46,44.629 -62.99,0 -111.8,-45.761 -111.8,-124.851 0,-79.09 49.95,-124.8596 113.5,-124.8596 63.57,0 81.74,24.8596 81.74,24.8596 v 57.633 h -82.31 v 69.48 h 171.98 V 67.7617"
         style="fill:#787c8a;fill-opacity:1;fill-rule:nonzero;stroke:none"
         id="path46" /><path
         d="M 5403.26,397.121 5267.05,164.93 V 7.32031 H 5175.1 V 164.93 l -136.21,232.191 h 102.17 l 80.02,-155.351 80.02,155.351 h 102.16"
         style="fill:#787c8a;fill-opacity:1;fill-rule:nonzero;stroke:none"
         id="path48" /><path
         d="m 5711.47,325.371 c -65.27,0 -114.64,-46.883 -114.64,-121.461 0,-74.57 49.37,-122.0194 114.64,-122.0194 65.27,0 114.65,47.4494 114.65,122.0194 0,74.012 -49.38,121.461 -114.65,121.461 z m 0,-324.83975 c -116.35,0 -207.72,75.12895 -207.72,201.11675 0,125.993 91.37,201.692 207.72,201.692 116.35,0 207.71,-75.699 207.71,-201.692 0,-125.9878 -91.36,-201.11675 -207.71,-201.11675"
         style="fill:#787c8a;fill-opacity:1;fill-rule:nonzero;stroke:none"
         id="path50" /><path
         d="m 6409.59,170.012 c 0,-54.793 -9.65,-92.6526 -37.47,-122.5901 -27.23,-29.3711 -69.8,-46.33206 -126.55,-46.33206 -57.32,0 -99.32,16.96096 -127.13,46.33206 -27.24,29.9375 -36.89,67.7971 -36.89,122.5901 v 227.109 h 92.51 V 170.012 c 0,-27.68 2.26,-49.153 15.32,-64.961 12.48,-14.6916 30.64,-24.2893 56.19,-24.2893 25.54,0 43.7,9.5977 56.18,24.2893 13.06,15.808 15.33,37.281 15.33,64.961 v 227.109 h 92.51 V 170.012"
         style="fill:#787c8a;fill-opacity:1;fill-rule:nonzero;stroke:none"
         id="path52" /><path
         d="M 7035.64,32.7383 C 7007.83,10.6992 6971.51,0.53125 6929.51,0.53125 c -56.75,0 -107.26,29.37895 -139.04,58.75785 l 45.4,66.6599 c 28.38,-29.3787 72.07,-49.1482 102.16,-49.1482 29.51,0 52.21,14.1289 52.21,40.1092 0,26.559 -28.94,36.711 -45.97,42.942 -17.03,6.218 -46.54,16.378 -59.59,22.039 -9.66,4.519 -29.52,11.847 -46.54,28.238 -17.02,15.812 -30.65,38.422 -30.65,75.133 0,37.289 18.16,66.66 40.86,85.308 22.14,18.649 57.9,31.071 103.3,31.071 45.41,0 97.61,-21.461 124.29,-48.02 l -39.16,-63.832 c -22.7,22.59 -57.89,39.543 -87.4,39.543 -29.51,0 -51.08,-11.301 -51.08,-35.023 0,-23.727 22.13,-32.77 39.73,-39.547 17.02,-6.782 45.96,-16.953 58.46,-22.032 10.77,-3.96 36.88,-14.128 54.48,-31.648 16.46,-16.371 30.65,-40.102 30.65,-75.133 0,-37.2888 -17.59,-71.1677 -45.98,-93.2107"
         style="fill:#787c8a;fill-opacity:1;fill-rule:nonzero;stroke:none"
         id="path54" /><path
         d="M 7439.19,157.02 7390.4,297.129 7341.58,157.02 Z M 7587.89,7.32031 H 7488 L 7460.19,85.8398 H 7320.58 L 7292.77,7.32031 h -95.34 L 7344.99,397.691 h 95.35 L 7587.89,7.32031"
         style="fill:#787c8a;fill-opacity:1;fill-rule:nonzero;stroke:none"
         id="path56" /><path
         d="m 7979.53,324.25 h -153.24 v -95.48 h 144.16 V 155.898 H 7826.29 V 7.32031 h -91.37 V 397.121 h 244.61 V 324.25"
         style="fill:#787c8a;fill-opacity:1;fill-rule:nonzero;stroke:none"
         id="path58" /><path
         d="M 8403.52,7.32031 H 8144.71 V 397.121 H 8398.4 V 324.25 h -162.31 v -79.66 h 153.23 V 171.711 H 8236.09 V 81.3203 h 167.43 V 7.32031"
         style="fill:#787c8a;fill-opacity:1;fill-rule:nonzero;stroke:none"
         id="path60" /></g></g></svg>
